<svg xmlns="http://www.w3.org/2000/svg" width="20" height="20" viewBox="0 0 20 20">
  <g id="コールアイコン" transform="translate(4 0.814)">
    <circle id="楕円形_298" data-name="楕円形 298" cx="10" cy="10" r="10" transform="translate(-4 -0.814)" fill="#505050"/>
    <path id="パス_3535" data-name="パス 3535" d="M12.047,107.624A11.864,11.864,0,0,0,9.471,106.3a1,1,0,0,0-1.029.783c-.136.486-.389.44-.389.44A9.308,9.308,0,0,1,5.3,105.389a9.282,9.282,0,0,1-2.143-2.75s-.048-.253.438-.39a1.006,1.006,0,0,0,.779-1.032,11.861,11.861,0,0,0-1.333-2.57,1.17,1.17,0,0,0-1.421-.123,3.315,3.315,0,0,0-1.51,3.563,11.7,11.7,0,0,0,3.149,5.35,11.694,11.694,0,0,0,5.361,3.129,3.315,3.315,0,0,0,3.558-1.522A1.171,1.171,0,0,0,12.047,107.624Z" transform="translate(0 -95.223)" fill="#fff"/>
  </g>
</svg>
